<?xml version="1.0" encoding="utf-8"?>
<!-- Generator: Adobe Illustrator 13.0.0, SVG Export Plug-In . SVG Version: 6.00 Build 14948)  -->
<!DOCTYPE svg PUBLIC "-//W3C//DTD SVG 1.1 Tiny//EN" "http://www.w3.org/Graphics/SVG/1.1/DTD/svg11-tiny.dtd">
<svg version="1.1" baseProfile="tiny" id="Layer_1" xmlns="http://www.w3.org/2000/svg" xmlns:xlink="http://www.w3.org/1999/xlink"
	 x="0px" y="0px" width="269.5px" height="120.5px" viewBox="-117.5 -56 269.5 120.5" xml:space="preserve">
<rect x="-122.5" y="-57.5" fill="none" width="176" height="126"/>
<path id="cloud" d="M66.559-12.612c-2.285-23.808-22.104-42.487-46.51-42.487c-18.882,0-35.043,11.206-42.5,27.286
	c-2.245-0.71-4.581-1.199-7.06-1.199c-12.964,0-23.478,10.52-23.478,23.478c0,2.58,0.517,5.015,1.284,7.326
	c-10.086,5.883-16.936,16.673-16.936,29.187c0,18.729,15.183,33.912,33.913,33.912v0.012h93.91v-0.012
	c21.611,0,39.129-17.518,39.129-39.131C98.311,6.685,84.635-9.16,66.559-12.612z M59.182,54.455v0.012h-93.91
	c-12.944-0.012-23.478-10.537-23.478-23.488c0-8.348,4.4-15.887,11.76-20.178c7.152-4.107,7.645-4.922,4.643-12.297
	c-0.507-1.519-0.751-2.836-0.751-4.031c0-7.194,5.85-13.043,13.043-13.043c0,0,3.424-0.246,7.06,1.199
	c5.983,2.383,6.636,0.105,9.465-6.046C-7.003-36.32,5.962-44.664,20.049-44.664c18.78,0,34.313,14.208,36.125,33.048
	c0.643,7.471,0.643,7.471,8.428,9.248c13.491,2.58,23.273,14.413,23.273,28.127C87.875,41.586,75.004,54.455,59.182,54.455z"/>
<rect x="-384.5" y="-284.5" fill="none" width="800" height="600"/>
<text transform="matrix(1 0 0 1 -31.5 12)" font-family="'BookAntiqua'" font-size="36">demo</text>
<text transform="matrix(1 0 0 1 -25.5 44.5)" font-family="'BookAntiqua'" font-size="36">Cloud</text>
</svg>
